<?xml version="1.0" encoding="utf-8"?>
<!-- Generator: Adobe Illustrator 23.0.1, SVG Export Plug-In . SVG Version: 6.00 Build 0)  -->
<svg version="1.1" id="图层_1" xmlns="http://www.w3.org/2000/svg" xmlns:xlink="http://www.w3.org/1999/xlink" x="0px" y="0px"
	 viewBox="0 0 1382.4 707.8" style="enable-background:new 0 0 1382.4 707.8;" xml:space="preserve">
<style type="text/css">
	.st0{fill:#FFFFFF;}
	.st1{stroke:#000000;stroke-width:0.8;stroke-linejoin:round;}
	.st2{clip-path:url(#SVGID_2_);fill:none;stroke:#800080;stroke-width:1.5;stroke-linejoin:round;stroke-dasharray:5.55,2.4;}
	.st3{clip-path:url(#SVGID_4_);fill:none;stroke:#FFA500;stroke-width:1.5;stroke-linejoin:round;}
	.st4{clip-path:url(#SVGID_6_);fill:none;stroke:#800080;stroke-width:1.5;stroke-linejoin:round;stroke-dasharray:5.55,2.4;}
	.st5{clip-path:url(#SVGID_8_);fill:none;stroke:#FFA500;stroke-width:1.5;stroke-linejoin:round;}
	.st6{clip-path:url(#SVGID_10_);fill:none;stroke:#800080;stroke-width:1.5;stroke-linejoin:round;stroke-dasharray:5.55,2.4;}
	.st7{clip-path:url(#SVGID_12_);fill:none;stroke:#000000;stroke-width:1.5;stroke-linecap:square;stroke-linejoin:round;}
	.st8{clip-path:url(#SVGID_14_);fill:none;stroke:#FF0000;stroke-width:1.5;stroke-linecap:square;stroke-linejoin:round;}
	.st9{clip-path:url(#SVGID_16_);fill:none;stroke:#0000FF;stroke-width:1.5;stroke-linecap:square;stroke-linejoin:round;}
	.st10{clip-path:url(#SVGID_18_);fill:none;stroke:#FF0000;stroke-width:1.5;stroke-linecap:square;stroke-linejoin:round;}
	.st11{clip-path:url(#SVGID_20_);fill:none;stroke:#000000;stroke-width:1.5;stroke-linecap:square;stroke-linejoin:round;}
	.st12{clip-path:url(#SVGID_22_);fill:none;stroke:#FF0000;stroke-width:1.5;stroke-linecap:square;stroke-linejoin:round;}
	.st13{clip-path:url(#SVGID_24_);fill:none;stroke:#0000FF;stroke-width:1.5;stroke-linecap:square;stroke-linejoin:round;}
	.st14{clip-path:url(#SVGID_26_);fill:none;stroke:#FF0000;stroke-width:1.5;stroke-linecap:square;stroke-linejoin:round;}
	.st15{clip-path:url(#SVGID_28_);fill:none;stroke:#000000;stroke-width:1.5;stroke-linecap:square;stroke-linejoin:round;}
	.st16{clip-path:url(#SVGID_30_);fill:none;stroke:#FF0000;stroke-width:1.5;stroke-linecap:square;stroke-linejoin:round;}
	.st17{clip-path:url(#SVGID_32_);fill:none;stroke:#0000FF;stroke-width:1.5;stroke-linecap:square;stroke-linejoin:round;}
	.st18{clip-path:url(#SVGID_34_);fill:none;stroke:#FF0000;stroke-width:1.5;stroke-linecap:square;stroke-linejoin:round;}
	.st19{fill:none;stroke:#000000;stroke-width:0.8;stroke-linecap:square;}
	.st20{opacity:0.8;fill:#FFFFFF;stroke:#CCCCCC;enable-background:new    ;}
	.st21{fill:none;stroke:#000000;stroke-width:1.5;stroke-linecap:square;stroke-linejoin:round;}
	.st22{fill:none;stroke:#0000FF;stroke-width:1.5;stroke-linecap:square;stroke-linejoin:round;}
	.st23{fill:none;stroke:#FF0000;stroke-width:1.5;stroke-linecap:square;stroke-linejoin:round;}
	.st24{font-family:'AdobeSongStd-Light-GBpc-EUC-H';}
	.st25{font-size:22px;}
</style>
<g id="figure_1">
	<g id="patch_1">
		<path class="st0" d="M0,0v707.8h1382.4V0H0z M221.1,645.6c0.3,2.7-1.3,5.6-4.8,5.6c-0.3,0-0.6,0-0.9-0.1c-0.8,1-2,1.6-3.7,1.6
			c-6.4,0-6.4-9.8-0.2-10c0.2-1.1,0.7-2.2,1.6-3c0.3-0.3,0.6-0.6,1-0.9c-2.8-2.7-1.7-8.7,3.3-8.7c5.4,0,6.3,7,2.7,9.3
			C221.7,641,222,643.6,221.1,645.6z M357.8,644.7c-0.8,2.8-3.5,3.9-6.2,3.5c-0.1,0-0.2,0-0.4-0.1c-0.8,0.2-1.8,0.3-2.7,0.1
			c-2-0.5-3.9-1.1-5.6-2.2c-0.9-0.6-1.6-1.5-2-2.4c-3.8-2.3-3-9.4,2.5-9.3c0.1,0,0.2,0,0.3,0c0.8-0.6,1.8-1,3.1-1
			c2.2,0,3.6,1.1,4.3,2.6c0.2,0.1,0.4,0.2,0.6,0.3c1.1,0.6,1.8,1.4,2.3,2.3c0.1,0,0.2,0,0.3,0.1C357,638.9,358.4,642.3,357.8,644.7z
			 M501.4,653.3c-9.9-2.5-20.2-2.4-30-5.4c-3.8-1.2-5.3-7.2-1.2-9.1c0.9-0.4,1.9-0.8,2.8-1c-0.2-2.6,1.4-5.4,4.8-5.4
			c2.2,0,3.6,1.1,4.3,2.7c3.9-1.1,7.2,2.9,6.4,6.2c5.2,0.7,10.4,1.3,15.5,2.6C510.3,645.2,507.7,654.9,501.4,653.3z M618.3,646.4
			c1.1,5.5-2.9,8-6.8,10.8c-2.2,1.6-5.6,0.4-6.8-1.8c-1.5-2.5-0.4-5.3,1.8-6.8c0.5-0.3,0.9-0.7,1.4-1c-1-0.6-2.6-1.3-3-1.4
			c-2.1-0.6-3.7-2.6-3.7-4.8c0-2,1.5-4.4,3.6-4.8c0.2-2.4,1.8-4.6,4.8-4.6c2.8,0,4.4,1.9,4.8,4.1c0,0,0,0,0,0c5,0,6.1,6,3.4,8.7
			C618,645.2,618.2,645.8,618.3,646.4z M751.6,648.3c-9.5-0.1-18.5-2.5-26.7-7.5c-5.5-3.4-0.5-12,5-8.6c1.8,1.1,3.7,2,5.5,2.8
			c0.3-0.2,0.6-0.4,1-0.6c0.8-0.9,2-1.5,3.6-1.5c0.6,0,1.2,0.1,1.7,0.3c0.5-0.2,1.1-0.3,1.7-0.3c3.3,0,4.9,2.7,4.8,5.3
			c1.1,0.1,2.2,0.2,3.4,0.2C758,638.4,758,648.4,751.6,648.3z M883.6,646.1c-1.8,0.6-3.7,0.9-5.6,1.1c-1.5,1.8-4.4,2.3-6.4,1.1
			c-0.4-0.2-0.8-0.6-1.1-0.9c-0.5,0.2-1,0.3-1.5,0.2c-1.1-0.1-1.8-0.2-2.8-0.7c-0.4-0.3-0.9-0.6-1.2-0.9c-0.4-0.4-0.7-0.8-0.9-1.2
			c-0.6-1-0.6-1.6-0.7-2.8c-0.1-0.8,0.2-1.6,0.6-2.4c0.3-1.7,1.4-3.2,3.2-3.8c0.1-0.1,0.2-0.3,0.3-0.4c0.7-1.5,2.1-2.5,4.3-2.5
			c2.7,0,4.3,1.8,4.7,3.9c1.9-0.4,3.9-0.5,5.8-0.5C888.1,636.3,888.9,644.4,883.6,646.1z M1014.5,647.3c-4,1.8-7.6,3.7-10.6,7
			c-4.2,4.9-11.3-2.2-7.1-7.1c0.4-0.4,0.8-0.8,1.2-1.2c-1.7-0.1-3.4-0.3-5.1-0.4c-6.4-0.6-6.4-10.6,0-10c1.1,0.1,2.1,0.2,3.2,0.3
			c0.5-2,2-3.7,4.7-3.7c2.4,0,3.9,1.4,4.5,3.2c0.8,0.4,1.4,0.9,1.8,1.6c2.1,0.3,4.1,0.7,6.2,1.2
			C1017.3,639.2,1018.5,645.5,1014.5,647.3z M1146.7,649.6c-1.5,2.5-4.4,2.8-6.8,1.8c-2.8-1.2-6.1-1.7-9-2.6
			c-0.5-0.1-0.9-0.3-1.3-0.6c-0.8,0.1-1.6,0.1-2.5,0.1c-2-0.1-4.4-1.5-4.8-3.7c-0.5-3-0.5-6.2,1.8-8.5c1.4-1.4,2.9-2,4.6-2.2
			c0.8-0.9,2-1.4,3.5-1.4c2.6,0,4.1,1.6,4.6,3.5c0.7-0.3,1.5-0.6,2.2-0.9c2.5-1,5.5,1.1,6.2,3.5c0.4,1.5,0.1,2.9-0.7,4
			c0.1,0.1,0.3,0.1,0.4,0.2C1147.4,643.8,1147.9,647.5,1146.7,649.6z"/>
	</g>
	<g id="axes_1">
		<g id="patch_2">
			<path class="st0" d="M172.8,629.9h1071.4v-545H172.8V629.9z"/>
		</g>
		<g id="matplotlib.axis_2">
			<g id="ytick_1">
				<g id="line2d_9">
					<g>
						<g>
							<path id="m6070fbe650" class="st1" d="M172.8,629.9h-3.5"/>
						</g>
					</g>
				</g>
				<g id="text_9">
					<g transform="translate(149.896875 633.705619)scale(0.1 -0.1)">
						<g>
							<path d="M31.8,66.4c-5.1,0-8.9-2.5-11.5-7.5c-2.6-5-3.8-12.5-3.8-22.5c0-10,1.3-17.5,3.8-22.5c2.6-5,6.4-7.5,11.5-7.5
								c5.1,0,8.9,2.5,11.5,7.5c2.6,5,3.8,12.5,3.8,22.5c0,10-1.3,17.5-3.8,22.5C40.7,63.9,36.9,66.4,31.8,66.4z M31.8,74.2
								c8.2,0,14.4-3.2,18.7-9.7c4.3-6.5,6.5-15.8,6.5-28.1c0-12.3-2.2-21.6-6.5-28.1C46.2,1.8,40-1.4,31.8-1.4
								c-8.2,0-14.4,3.2-18.7,9.7c-4.3,6.5-6.5,15.8-6.5,28.1c0,12.3,2.2,21.7,6.5,28.1C17.4,71,23.6,74.2,31.8,74.2z"/>
						</g>
						<g>
							<path id="DejaVuSans-46" d="M74.3,12.4h10.3V0H74.3V12.4z"/>
						</g>
						<g>
							<path d="M127.2,66.4c-5.1,0-8.9-2.5-11.5-7.5c-2.6-5-3.8-12.5-3.8-22.5c0-10,1.3-17.5,3.8-22.5c2.6-5,6.4-7.5,11.5-7.5
								c5.1,0,8.9,2.5,11.5,7.5c2.6,5,3.8,12.5,3.8,22.5c0,10-1.3,17.5-3.8,22.5C136.1,63.9,132.3,66.4,127.2,66.4z M127.2,74.2
								c8.2,0,14.4-3.2,18.7-9.7c4.3-6.5,6.5-15.8,6.5-28.1c0-12.3-2.2-21.6-6.5-28.1c-4.3-6.5-10.6-9.7-18.7-9.7
								c-8.2,0-14.4,3.2-18.7,9.7c-4.3,6.5-6.5,15.8-6.5,28.1c0,12.3,2.2,21.7,6.5,28.1C112.8,71,119,74.2,127.2,74.2z"/>
						</g>
					</g>
				</g>
			</g>
			<g id="ytick_2">
				<g id="line2d_10">
					<g>
						<g>
							<path class="st1" d="M172.8,568h-3.5"/>
						</g>
					</g>
				</g>
				<g id="text_10">
					<g transform="translate(149.896875 571.776619)scale(0.1 -0.1)">
						<g>
							<path d="M31.8,66.4c-5.1,0-8.9-2.5-11.5-7.5c-2.6-5-3.8-12.5-3.8-22.5c0-10,1.3-17.5,3.8-22.5c2.6-5,6.4-7.5,11.5-7.5
								c5.1,0,8.9,2.5,11.5,7.5c2.6,5,3.8,12.5,3.8,22.5c0,10-1.3,17.5-3.8,22.5C40.7,63.9,36.9,66.4,31.8,66.4z M31.8,74.2
								c8.2,0,14.4-3.2,18.7-9.7c4.3-6.5,6.5-15.8,6.5-28.1c0-12.3-2.2-21.6-6.5-28.1C46.2,1.8,40-1.4,31.8-1.4
								c-8.2,0-14.4,3.2-18.7,9.7c-4.3,6.5-6.5,15.8-6.5,28.1c0,12.3,2.2,21.7,6.5,28.1C17.4,71,23.6,74.2,31.8,74.2z"/>
						</g>
						<g>
							<path d="M74.3,12.4h10.3V0H74.3V12.4z"/>
						</g>
						<g>
							<path d="M106.2,72.9h38.7v-8.3h-29.7V46.7c1.4,0.5,2.9,0.9,4.3,1.1c1.4,0.2,2.9,0.4,4.3,0.4c8.1,0,14.6-2.2,19.3-6.7
								c4.8-4.5,7.1-10.5,7.1-18.1c0-7.8-2.4-13.9-7.3-18.3c-4.9-4.3-11.8-6.5-20.7-6.5c-3.1,0-6.2,0.3-9.4,0.8
								c-3.2,0.5-6.4,1.3-9.8,2.3v9.9c2.9-1.6,6-2.8,9.1-3.6s6.4-1.2,9.9-1.2c5.6,0,10.1,1.5,13.4,4.4c3.3,3,4.9,7,4.9,12.1
								c0,5.1-1.6,9.1-4.9,12c-3.3,3-7.7,4.5-13.4,4.5c-2.6,0-5.3-0.3-7.9-0.9c-2.6-0.6-5.3-1.5-8-2.7V72.9z"/>
						</g>
					</g>
				</g>
			</g>
			<g id="ytick_3">
				<g id="line2d_11">
					<g>
						<g>
							<path class="st1" d="M172.8,506h-3.5"/>
						</g>
					</g>
				</g>
				<g id="text_11">
					<g transform="translate(149.896875 509.847619)scale(0.1 -0.1)">
						<g>
							<path d="M12.4,8.3h16.1v55.6L11,60.4v9l17.4,3.5h9.9V8.3h16.1V0h-42V8.3z"/>
						</g>
						<g>
							<path d="M74.3,12.4h10.3V0H74.3V12.4z"/>
						</g>
						<g>
							<path d="M127.2,66.4c-5.1,0-8.9-2.5-11.5-7.5c-2.6-5-3.8-12.5-3.8-22.5c0-10,1.3-17.5,3.8-22.5c2.6-5,6.4-7.5,11.5-7.5
								c5.1,0,8.9,2.5,11.5,7.5c2.6,5,3.8,12.5,3.8,22.5c0,10-1.3,17.5-3.8,22.5C136.1,63.9,132.3,66.4,127.2,66.4z M127.2,74.2
								c8.2,0,14.4-3.2,18.7-9.7c4.3-6.5,6.5-15.8,6.5-28.1c0-12.3-2.2-21.6-6.5-28.1c-4.3-6.5-10.6-9.7-18.7-9.7
								c-8.2,0-14.4,3.2-18.7,9.7c-4.3,6.5-6.5,15.8-6.5,28.1c0,12.3,2.2,21.7,6.5,28.1C112.8,71,119,74.2,127.2,74.2z"/>
						</g>
					</g>
				</g>
			</g>
			<g id="ytick_4">
				<g id="line2d_12">
					<g>
						<g>
							<path class="st1" d="M172.8,444.1h-3.5"/>
						</g>
					</g>
				</g>
				<g id="text_12">
					<g transform="translate(149.896875 447.918619)scale(0.1 -0.1)">
						<g>
							<path d="M12.4,8.3h16.1v55.6L11,60.4v9l17.4,3.5h9.9V8.3h16.1V0h-42V8.3z"/>
						</g>
						<g>
							<path d="M74.3,12.4h10.3V0H74.3V12.4z"/>
						</g>
						<g>
							<path d="M106.2,72.9h38.7v-8.3h-29.7V46.7c1.4,0.5,2.9,0.9,4.3,1.1c1.4,0.2,2.9,0.4,4.3,0.4c8.1,0,14.6-2.2,19.3-6.7
								c4.8-4.5,7.1-10.5,7.1-18.1c0-7.8-2.4-13.9-7.3-18.3c-4.9-4.3-11.8-6.5-20.7-6.5c-3.1,0-6.2,0.3-9.4,0.8
								c-3.2,0.5-6.4,1.3-9.8,2.3v9.9c2.9-1.6,6-2.8,9.1-3.6s6.4-1.2,9.9-1.2c5.6,0,10.1,1.5,13.4,4.4c3.3,3,4.9,7,4.9,12.1
								c0,5.1-1.6,9.1-4.9,12c-3.3,3-7.7,4.5-13.4,4.5c-2.6,0-5.3-0.3-7.9-0.9c-2.6-0.6-5.3-1.5-8-2.7V72.9z"/>
						</g>
					</g>
				</g>
			</g>
			<g id="ytick_5">
				<g id="line2d_13">
					<g>
						<g>
							<path class="st1" d="M172.8,382.2h-3.5"/>
						</g>
					</g>
				</g>
				<g id="text_13">
					<g transform="translate(149.896875 385.989619)scale(0.1 -0.1)">
						<g>
							<path d="M19.2,8.3h34.4V0H7.3v8.3c3.7,3.9,8.8,9.1,15.3,15.6c6.5,6.5,10.5,10.7,12.2,12.6c3.2,3.5,5.4,6.5,6.6,9
								c1.3,2.5,1.9,4.9,1.9,7.3c0,3.9-1.4,7-4.1,9.5c-2.7,2.4-6.3,3.7-10.6,3.7c-3.1,0-6.4-0.5-9.8-1.6c-3.4-1.1-7.1-2.7-11-4.9v10
								c4,1.6,7.7,2.8,11.1,3.6c3.5,0.8,6.6,1.2,9.5,1.2c7.6,0,13.6-1.9,18.1-5.7c4.5-3.8,6.7-8.8,6.7-15.1c0-3-0.6-5.8-1.7-8.5
								c-1.1-2.7-3.2-5.8-6.1-9.5c-0.8-0.9-3.4-3.7-7.8-8.2C33.3,22.7,27.1,16.4,19.2,8.3z"/>
						</g>
						<g>
							<path d="M74.3,12.4h10.3V0H74.3V12.4z"/>
						</g>
						<g>
							<path d="M127.2,66.4c-5.1,0-8.9-2.5-11.5-7.5c-2.6-5-3.8-12.5-3.8-22.5c0-10,1.3-17.5,3.8-22.5c2.6-5,6.4-7.5,11.5-7.5
								c5.1,0,8.9,2.5,11.5,7.5c2.6,5,3.8,12.5,3.8,22.5c0,10-1.3,17.5-3.8,22.5C136.1,63.9,132.3,66.4,127.2,66.4z M127.2,74.2
								c8.2,0,14.4-3.2,18.7-9.7c4.3-6.5,6.5-15.8,6.5-28.1c0-12.3-2.2-21.6-6.5-28.1c-4.3-6.5-10.6-9.7-18.7-9.7
								c-8.2,0-14.4,3.2-18.7,9.7c-4.3,6.5-6.5,15.8-6.5,28.1c0,12.3,2.2,21.7,6.5,28.1C112.8,71,119,74.2,127.2,74.2z"/>
						</g>
					</g>
				</g>
			</g>
			<g id="ytick_6">
				<g id="line2d_14">
					<g>
						<g>
							<path class="st1" d="M172.8,320.3h-3.5"/>
						</g>
					</g>
				</g>
				<g id="text_14">
					<g transform="translate(149.896875 324.060619)scale(0.1 -0.1)">
						<g>
							<path d="M19.2,8.3h34.4V0H7.3v8.3c3.7,3.9,8.8,9.1,15.3,15.6c6.5,6.5,10.5,10.7,12.2,12.6c3.2,3.5,5.4,6.5,6.6,9
								c1.3,2.5,1.9,4.9,1.9,7.3c0,3.9-1.4,7-4.1,9.5c-2.7,2.4-6.3,3.7-10.6,3.7c-3.1,0-6.4-0.5-9.8-1.6c-3.4-1.1-7.1-2.7-11-4.9v10
								c4,1.6,7.7,2.8,11.1,3.6c3.5,0.8,6.6,1.2,9.5,1.2c7.6,0,13.6-1.9,18.1-5.7c4.5-3.8,6.7-8.8,6.7-15.1c0-3-0.6-5.8-1.7-8.5
								c-1.1-2.7-3.2-5.8-6.1-9.5c-0.8-0.9-3.4-3.7-7.8-8.2C33.3,22.7,27.1,16.4,19.2,8.3z"/>
						</g>
						<g>
							<path d="M74.3,12.4h10.3V0H74.3V12.4z"/>
						</g>
						<g>
							<path d="M106.2,72.9h38.7v-8.3h-29.7V46.7c1.4,0.5,2.9,0.9,4.3,1.1c1.4,0.2,2.9,0.4,4.3,0.4c8.1,0,14.6-2.2,19.3-6.7
								c4.8-4.5,7.1-10.5,7.1-18.1c0-7.8-2.4-13.9-7.3-18.3c-4.9-4.3-11.8-6.5-20.7-6.5c-3.1,0-6.2,0.3-9.4,0.8
								c-3.2,0.5-6.4,1.3-9.8,2.3v9.9c2.9-1.6,6-2.8,9.1-3.6s6.4-1.2,9.9-1.2c5.6,0,10.1,1.5,13.4,4.4c3.3,3,4.9,7,4.9,12.1
								c0,5.1-1.6,9.1-4.9,12c-3.3,3-7.7,4.5-13.4,4.5c-2.6,0-5.3-0.3-7.9-0.9c-2.6-0.6-5.3-1.5-8-2.7V72.9z"/>
						</g>
					</g>
				</g>
			</g>
			<g id="ytick_7">
				<g id="line2d_15">
					<g>
						<g>
							<path class="st1" d="M172.8,258.3h-3.5"/>
						</g>
					</g>
				</g>
				<g id="text_15">
					<g transform="translate(149.896875 262.131619)scale(0.1 -0.1)">
						<g>
							<path id="DejaVuSans-51" d="M40.6,39.3c4.7-1,8.4-3.1,11-6.3c2.7-3.2,4-7.1,4-11.8c0-7.2-2.5-12.8-7.4-16.7
								c-4.9-3.9-12-5.9-21.1-5.9c-3.1,0-6.2,0.3-9.4,0.9S11.1,1,7.6,2.2v9.5c2.7-1.6,5.7-2.8,9-3.6c3.3-0.8,6.7-1.2,10.2-1.2
								c6.2,0,10.9,1.2,14.1,3.7s4.9,6,4.9,10.6c0,4.3-1.5,7.7-4.5,10.1c-3,2.4-7.2,3.6-12.6,3.6h-8.5V43h8.9c4.8,0,8.6,1,11.1,2.9
								s3.9,4.7,3.9,8.4c0,3.7-1.3,6.6-4,8.6c-2.6,2-6.4,3-11.4,3c-2.7,0-5.6-0.3-8.7-0.9c-3.1-0.6-6.5-1.5-10.2-2.7v8.8
								c3.8,1,7.3,1.8,10.5,2.3s6.4,0.8,9.3,0.8c7.5,0,13.4-1.7,17.8-5.1c4.4-3.4,6.5-8,6.5-13.8c0-4-1.2-7.5-3.5-10.2
								S44.8,40.4,40.6,39.3z"/>
						</g>
						<g>
							<path d="M74.3,12.4h10.3V0H74.3V12.4z"/>
						</g>
						<g>
							<path d="M127.2,66.4c-5.1,0-8.9-2.5-11.5-7.5c-2.6-5-3.8-12.5-3.8-22.5c0-10,1.3-17.5,3.8-22.5c2.6-5,6.4-7.5,11.5-7.5
								c5.1,0,8.9,2.5,11.5,7.5c2.6,5,3.8,12.5,3.8,22.5c0,10-1.3,17.5-3.8,22.5C136.1,63.9,132.3,66.4,127.2,66.4z M127.2,74.2
								c8.2,0,14.4-3.2,18.7-9.7c4.3-6.5,6.5-15.8,6.5-28.1c0-12.3-2.2-21.6-6.5-28.1c-4.3-6.5-10.6-9.7-18.7-9.7
								c-8.2,0-14.4,3.2-18.7,9.7c-4.3,6.5-6.5,15.8-6.5,28.1c0,12.3,2.2,21.7,6.5,28.1C112.8,71,119,74.2,127.2,74.2z"/>
						</g>
					</g>
				</g>
			</g>
			<g id="ytick_8">
				<g id="line2d_16">
					<g>
						<g>
							<path class="st1" d="M172.8,196.4h-3.5"/>
						</g>
					</g>
				</g>
				<g id="text_16">
					<g transform="translate(149.896875 200.202619)scale(0.1 -0.1)">
						<g>
							<path d="M40.6,39.3c4.7-1,8.4-3.1,11-6.3c2.7-3.2,4-7.1,4-11.8c0-7.2-2.5-12.8-7.4-16.7c-4.9-3.9-12-5.9-21.1-5.9
								c-3.1,0-6.2,0.3-9.4,0.9S11.1,1,7.6,2.2v9.5c2.7-1.6,5.7-2.8,9-3.6c3.3-0.8,6.7-1.2,10.2-1.2c6.2,0,10.9,1.2,14.1,3.7
								s4.9,6,4.9,10.6c0,4.3-1.5,7.7-4.5,10.1c-3,2.4-7.2,3.6-12.6,3.6h-8.5V43h8.9c4.8,0,8.6,1,11.1,2.9s3.9,4.7,3.9,8.4
								c0,3.7-1.3,6.6-4,8.6c-2.6,2-6.4,3-11.4,3c-2.7,0-5.6-0.3-8.7-0.9c-3.1-0.6-6.5-1.5-10.2-2.7v8.8c3.8,1,7.3,1.8,10.5,2.3
								s6.4,0.8,9.3,0.8c7.5,0,13.4-1.7,17.8-5.1c4.4-3.4,6.5-8,6.5-13.8c0-4-1.2-7.5-3.5-10.2S44.8,40.4,40.6,39.3z"/>
						</g>
						<g>
							<path d="M74.3,12.4h10.3V0H74.3V12.4z"/>
						</g>
						<g>
							<path d="M106.2,72.9h38.7v-8.3h-29.7V46.7c1.4,0.5,2.9,0.9,4.3,1.1c1.4,0.2,2.9,0.4,4.3,0.4c8.1,0,14.6-2.2,19.3-6.7
								c4.8-4.5,7.1-10.5,7.1-18.1c0-7.8-2.4-13.9-7.3-18.3c-4.9-4.3-11.8-6.5-20.7-6.5c-3.1,0-6.2,0.3-9.4,0.8
								c-3.2,0.5-6.4,1.3-9.8,2.3v9.9c2.9-1.6,6-2.8,9.1-3.6s6.4-1.2,9.9-1.2c5.6,0,10.1,1.5,13.4,4.4c3.3,3,4.9,7,4.9,12.1
								c0,5.1-1.6,9.1-4.9,12c-3.3,3-7.7,4.5-13.4,4.5c-2.6,0-5.3-0.3-7.9-0.9c-2.6-0.6-5.3-1.5-8-2.7V72.9z"/>
						</g>
					</g>
				</g>
			</g>
			<g id="ytick_9">
				<g id="line2d_17">
					<g>
						<g>
							<path class="st1" d="M172.8,134.5h-3.5"/>
						</g>
					</g>
				</g>
				<g id="text_17">
					<g transform="translate(149.896875 138.273619)scale(0.1 -0.1)">
						<g>
							<path id="DejaVuSans-52" d="M37.8,64.3L12.9,25.4h24.9V64.3z M35.2,72.9h12.4V25.4H58v-8.2H47.6V0h-9.8v17.2H4.9v9.5
								L35.2,72.9z"/>
						</g>
						<g>
							<path d="M74.3,12.4h10.3V0H74.3V12.4z"/>
						</g>
						<g>
							<path d="M127.2,66.4c-5.1,0-8.9-2.5-11.5-7.5c-2.6-5-3.8-12.5-3.8-22.5c0-10,1.3-17.5,3.8-22.5c2.6-5,6.4-7.5,11.5-7.5
								c5.1,0,8.9,2.5,11.5,7.5c2.6,5,3.8,12.5,3.8,22.5c0,10-1.3,17.5-3.8,22.5C136.1,63.9,132.3,66.4,127.2,66.4z M127.2,74.2
								c8.2,0,14.4-3.2,18.7-9.7c4.3-6.5,6.5-15.8,6.5-28.1c0-12.3-2.2-21.6-6.5-28.1c-4.3-6.5-10.6-9.7-18.7-9.7
								c-8.2,0-14.4,3.2-18.7,9.7c-4.3,6.5-6.5,15.8-6.5,28.1c0,12.3,2.2,21.7,6.5,28.1C112.8,71,119,74.2,127.2,74.2z"/>
						</g>
					</g>
				</g>
			</g>
		</g>
		<g id="LineCollection_1">
			<g>
				<defs>
					<rect id="SVGID_1_" x="172.8" y="84.9" width="1071.4" height="545"/>
				</defs>
				<clipPath id="SVGID_2_">
					<use xlink:href="#SVGID_1_"  style="overflow:visible;"/>
				</clipPath>
				<path class="st2" d="M533.1,568v-99.1"/>
			</g>
		</g>
		<g id="LineCollection_2">
			<g>
				<defs>
					<rect id="SVGID_3_" x="172.8" y="84.9" width="1071.4" height="545"/>
				</defs>
				<clipPath id="SVGID_4_">
					<use xlink:href="#SVGID_3_"  style="overflow:visible;"/>
				</clipPath>
				<path class="st3" d="M575,605.1V109.7"/>
			</g>
		</g>
		<g id="LineCollection_3">
			<g>
				<defs>
					<rect id="SVGID_5_" x="172.8" y="84.9" width="1071.4" height="545"/>
				</defs>
				<clipPath id="SVGID_6_">
					<use xlink:href="#SVGID_5_"  style="overflow:visible;"/>
				</clipPath>
				<path class="st4" d="M983.4,394.6v-99.1"/>
			</g>
		</g>
		<g id="LineCollection_4">
			<g>
				<defs>
					<rect id="SVGID_7_" x="172.8" y="84.9" width="1071.4" height="545"/>
				</defs>
				<clipPath id="SVGID_8_">
					<use xlink:href="#SVGID_7_"  style="overflow:visible;"/>
				</clipPath>
				<path class="st5" d="M1025.3,605.1V109.7"/>
			</g>
		</g>
		<g id="LineCollection_5">
			<g>
				<defs>
					<rect id="SVGID_9_" x="172.8" y="84.9" width="1071.4" height="545"/>
				</defs>
				<clipPath id="SVGID_10_">
					<use xlink:href="#SVGID_9_"  style="overflow:visible;"/>
				</clipPath>
				<path class="st6" d="M1156.2,419.3v-99.1"/>
			</g>
		</g>
		<g id="line2d_18">
			<g>
				<defs>
					<rect id="SVGID_11_" x="172.8" y="84.9" width="1071.4" height="545"/>
				</defs>
				<clipPath id="SVGID_12_">
					<use xlink:href="#SVGID_11_"  style="overflow:visible;"/>
				</clipPath>
				<path class="st7" d="M221.5,328.4l5.2-14.1l5.2-14.9l5.2-8.5l5.2-21.1l5.2-11.9l5.2-11.5l5.2-16.9l5.2,27.5l5.2,16.1l5.2,12.6
					l5.2,7.1l5.2-4.2l5.2,9.7l5.2,17.8l5.2,12.3l5.2,14.1l5.2,21.4l5.2,39l5.2,29.1l5.2,13.3l5.2,2.3l5.2-21.3l5.2-7.5l5.2,18.7
					l5.2-11.4l5.2-2.9l5.2-10.7l5.2-15.2l5.2-17.5l5.2-11.8l5.2-4l5.2,14.4l5.2-11.7l5.2-2.6l5.2-0.7l5.2-6l5.2-1l5.2-12.7l5.2-9.1
					l5.2-23.2l5.2-23.7l5.2-27.1l5.2-14.5l5.2-17.4l5.2-11l5.2-39.1l5.2,12.1l5.2,6.5l5.2,9.6l5.2,3.7l5.2,12l5.2-6l5.2-19.1
					l5.2,9.5l5.2,12.2l5.2,46.6l5.2,88.5l5.2,98.5l5.2,57.2"/>
			</g>
		</g>
		<g id="line2d_19">
			<g>
				<defs>
					<rect id="SVGID_13_" x="172.8" y="84.9" width="1071.4" height="545"/>
				</defs>
				<clipPath id="SVGID_14_">
					<use xlink:href="#SVGID_13_"  style="overflow:visible;"/>
				</clipPath>
				<path class="st8" d="M221.5,332.1l5.2-10.2l5.2-21.4l5.2-22.5l5.2-14.3l5.2-14l5.2-23l5.2,27.8l5.2,3.8l5.2-1.3l5.2,12l5.2,11.6
					l5.2-3l5.2,11.6l5.2,18l5.2,13.5l5.2,33.8l5.2,51l5.2,27.1l5.2,21.3l5.2,0.1l5.2-26.4l5.2-25l5.2,23.9l5.2-5.4l5.2-1.5l5.2-0.5
					l5.2-3.5l5.2-23.8l5.2-16.9l5.2-9l5.2,13.8l5.2-0.1l5.2-5.6l5.2-3.9l5.2,4.6l5.2-8.9l5.2-5.6l5.2-13.2l5.2-11.3l5.2-26.2
					l5.2-30.4l5.2-13.3l5.2-18.8l5.2-21.4l5.2-51.5l5.2-1.8l5.2,20.9l5.2,17.4l5.2,17.7l5.2,9.5l5.2-13.7l5.2-22.7l5.2-9l5.2-3.4
					l5.2,27.3l5.2,66.6l5.2,77l5.2,109l5.2,28.2"/>
			</g>
		</g>
		<g id="line2d_20">
			<g>
				<defs>
					<rect id="SVGID_15_" x="172.8" y="84.9" width="1071.4" height="545"/>
				</defs>
				<clipPath id="SVGID_16_">
					<use xlink:href="#SVGID_15_"  style="overflow:visible;"/>
				</clipPath>
				<path class="st9" d="M535.7,553.4l5.2-42.5l5.2,25.3l5.2-22.1l5.2-7.9l5.2-6.3l5.2-55.6l5.2-35"/>
			</g>
		</g>
		<g id="line2d_21">
			<g>
				<defs>
					<rect id="SVGID_17_" x="172.8" y="84.9" width="1071.4" height="545"/>
				</defs>
				<clipPath id="SVGID_18_">
					<use xlink:href="#SVGID_17_"  style="overflow:visible;"/>
				</clipPath>
				<path class="st10" d="M535.7,495.2l5.2,19.5l5.2-7.5l5.2,5.2l5.2-4.7l5.2-51.7l5.2-25.8l5.2,12.5"/>
			</g>
		</g>
		<g id="line2d_22">
			<g>
				<defs>
					<rect id="SVGID_19_" x="172.8" y="84.9" width="1071.4" height="545"/>
				</defs>
				<clipPath id="SVGID_20_">
					<use xlink:href="#SVGID_19_"  style="overflow:visible;"/>
				</clipPath>
				<path class="st11" d="M577.6,436.7l5.2-6.5l5.2,7.4l5.2-18.8l5.2-11.8l5.2,8.7l5.2-11.4l5.2-24.4l5.2-6.4l5.2,6.6l5.2-4.8
					l5.2,3.5l5.2-6.4l5.2-67.1l5.2-80.4l5.2,17.7l5.2,30.2l5.2,11.6l5.2-12.7l5.2-49.5l5.2-20.3l5.2,7.2l5.2-11.8l5.2-5.6l5.2,47.8
					l5.2,35.4l5.2-23.7l5.2,6.5l5.2,12l5.2-6.7l5.2,18.6l5.2,27.7l5.2,10.5l5.2,1.9l5.2-19.4l5.2-12.1l5.2-14.9l5.2-3.3l5.2,11.9
					l5.2-4.7L787,292l5.2-1.4l5.2-5.7l5.2-69.6l5.2,16l5.2-19.6l5.2,2.3l5.2-10.5l5.2-11.4l5.2-49l5.2,4.1l5.2,29.4l5.2,55.2
					l5.2,14.6l5.2-17.3l5.2-5.7l5.2,0.6l5.2-17.2l5.2-5.8l5.2,3.8l5.2,15.5l5.2,12.3l5.2-1l5.2-6.2l5.2,6.4l5.2,29.1l5.2,20.4
					l5.2,45.1l5.2,47.4l5.2-32.2l5.2,2.5l5.2-2.5l5.2-6.7l5.2-10.3l5.2,10.4l5.2,11l5.2,3.5l5.2,12.5"/>
			</g>
		</g>
		<g id="line2d_23">
			<g>
				<defs>
					<rect id="SVGID_21_" x="172.8" y="84.9" width="1071.4" height="545"/>
				</defs>
				<clipPath id="SVGID_22_">
					<use xlink:href="#SVGID_21_"  style="overflow:visible;"/>
				</clipPath>
				<path class="st12" d="M577.6,443.3l5.2,2.2l5.2-11.9l5.2-9.1l5.2,16.5l5.2-12.3l5.2-14.1l5.2-32.2l5.2,3.4l5.2,6.6l5.2-0.7
					l5.2-8.8l5.2-40.5l5.2-87.6l5.2-1.1l5.2-9.1l5.2,25.6l5.2,9l5.2-15.2l5.2-47.6l5.2-31.3l5.2-10.3l5.2-16.8l5.2,71.4l5.2,61.9
					l5.2,5.5l5.2-11.7l5.2-15.2l5.2,3.9l5.2,1.7l5.2,41.5l5.2,31.5l5.2,0.2l5.2-28.9l5.2-30.2l5.2-14.7l5.2-3l5.2-1.7l5.2,8.6
					l5.2,10.9l5.2,0.2l5.2,1.3l5.2-13.4l5.2-48.7l5.2-28.7l5.2-8.5l5.2-6.8l5.2-5.1l5.2-54.8l5.2-0.8l5.2,20l5.2,62.4l5.2,29.9
					l5.2-31.1l5.2-6.4l5.2,20.1l5.2-38.8l5.2-16.6l5.2-2.7l5.2,28.5l5.2,48.9l5.2-17.4l5.2,15.6l5.2,12.5l5.2-3.1l5.2,5.9l5.2,80.4
					l5.2,77.9l5.2-56.9l5.2-3.8l5.2-5.4l5.2-12.7l5.2-16.1l5.2,15.3l5.2,11.7l5.2,3.3l5.2,20.8l5.2-11.1"/>
			</g>
		</g>
		<g id="line2d_24">
			<g>
				<defs>
					<rect id="SVGID_23_" x="172.8" y="84.9" width="1071.4" height="545"/>
				</defs>
				<clipPath id="SVGID_24_">
					<use xlink:href="#SVGID_23_"  style="overflow:visible;"/>
				</clipPath>
				<path class="st13" d="M986,357.6l5.2-9.3l5.2-8.3l5.2,8l5.2,10.8l5.2-7.8l5.2-0.8l5.2-8.5"/>
			</g>
		</g>
		<g id="line2d_25">
			<g>
				<defs>
					<rect id="SVGID_25_" x="172.8" y="84.9" width="1071.4" height="545"/>
				</defs>
				<clipPath id="SVGID_26_">
					<use xlink:href="#SVGID_25_"  style="overflow:visible;"/>
				</clipPath>
				<path class="st14" d="M986,343.3l5.2-10.4l5.2,12.6l5.2,18.6l5.2-1.5l5.2,0.3l5.2-3.1l5.2-60.4"/>
			</g>
		</g>
		<g id="line2d_26">
			<g>
				<defs>
					<rect id="SVGID_27_" x="172.8" y="84.9" width="1071.4" height="545"/>
				</defs>
				<clipPath id="SVGID_28_">
					<use xlink:href="#SVGID_27_"  style="overflow:visible;"/>
				</clipPath>
				<path class="st15" d="M1027.9,297.1l5.2-9l5.2-20.7l5.2-16.1l5.2-36.3l5.2-12.5l5.2-3.5l5.2-4l5.2,5.9l5.2-3.1l5.2-12.2
					l5.2-17.1l5.2,17.1l5.2,22.8l5.2,21.9l5.2,5.7l5.2,23l5.2-21.9l5.2,27.2l5.2,1.7l5.2,1.6l5.2,14.4l5.2,23.7l5.2,3.6l5.2,20"/>
			</g>
		</g>
		<g id="line2d_27">
			<g>
				<defs>
					<rect id="SVGID_29_" x="172.8" y="84.9" width="1071.4" height="545"/>
				</defs>
				<clipPath id="SVGID_30_">
					<use xlink:href="#SVGID_29_"  style="overflow:visible;"/>
				</clipPath>
				<path class="st16" d="M1027.9,296.4l5.2-11.4l5.2-6.1l5.2-27.6l5.2-47.3l5.2-13.1l5.2,13.9l5.2,9.4l5.2-13.2l5.2-4.8l5.2-14.6
					l5.2-17.5l5.2,25.2l5.2,22.2l5.2,10.9l5.2,19.9l5.2,11.1l5.2-23.4l5.2,25.2l5.2,26.9l5.2-14l5.2,4.7l5.2,36.6l5.2,3.2l5.2,19.7"
					/>
			</g>
		</g>
		<g id="line2d_28">
			<g>
				<defs>
					<rect id="SVGID_31_" x="172.8" y="84.9" width="1071.4" height="545"/>
				</defs>
				<clipPath id="SVGID_32_">
					<use xlink:href="#SVGID_31_"  style="overflow:visible;"/>
				</clipPath>
				<path class="st17" d="M1158.8,357.1l5.2-69.3l5.2,73.5l5.2-76.6l5.2,3.3l5.2,1.6l5.2,18l5.2-1.5"/>
			</g>
		</g>
		<g id="line2d_29">
			<g>
				<defs>
					<rect id="SVGID_33_" x="172.8" y="84.9" width="1071.4" height="545"/>
				</defs>
				<clipPath id="SVGID_34_">
					<use xlink:href="#SVGID_33_"  style="overflow:visible;"/>
				</clipPath>
				<path class="st18" d="M1158.8,340.1l5.2-14.7l5.2-16.4l5.2-12.1l5.2,0.8l5.2,7.5l5.2,2.5l5.2,1.9"/>
			</g>
		</g>
		<g id="patch_3">
			<path class="st19" d="M172.8,629.9v-545"/>
		</g>
		<g id="patch_4">
			<path class="st19" d="M1244.2,629.9v-545"/>
		</g>
		<g id="patch_5">
			<path class="st19" d="M172.8,629.9h1071.4"/>
		</g>
		<g id="patch_6">
			<path class="st19" d="M172.8,84.9h1071.4"/>
		</g>
		<g id="legend_1">
			<g id="patch_7">
				<path class="st20" d="M1154.8,137h82.4c1.3,0,2-0.7,2-2v-43c0-1.3-0.7-2-2-2h-82.4c-1.3,0-2,0.7-2,2v43
					C1152.8,136.3,1153.4,137,1154.8,137z"/>
			</g>
			<g id="line2d_30">
				<path class="st21" d="M1156.8,98h20"/>
			</g>
			<g id="line2d_31">
			</g>
			<g id="text_18">
				<g transform="translate(1184.770937 101.529638)scale(0.1 -0.1)">
					<g>
						<path id="DejaVuSans-116" d="M18.3,70.2V54.7h18.5v-7H18.3V18c0-4.5,0.6-7.3,1.8-8.6s3.7-1.9,7.5-1.9h9.2V0h-9.2
							c-6.9,0-11.7,1.3-14.4,3.9c-2.6,2.6-4,7.3-4,14.1v29.7H2.7v7h6.6v15.5H18.3z"/>
					</g>
					<g>
						<path id="DejaVuSans-114" d="M80.3,46.3c-1,0.6-2.1,1-3.3,1.3c-1.2,0.3-2.5,0.4-3.9,0.4c-5.1,0-9-1.7-11.7-5s-4.1-8-4.1-14.2
							V0h-9v54.7h9v-8.5c1.9,3.3,4.4,5.8,7.4,7.4c3,1.6,6.7,2.4,11,2.4c0.6,0,1.3,0,2-0.1c0.8-0.1,1.6-0.2,2.5-0.4L80.3,46.3z"/>
					</g>
					<g>
						<path id="DejaVuSans-97" d="M114.6,27.5c-7.3,0-12.3-0.8-15.1-2.5c-2.8-1.7-4.2-4.5-4.2-8.5c0-3.2,1.1-5.7,3.2-7.6
							c2.1-1.9,5-2.8,8.6-2.8c5,0,9,1.8,12,5.3c3,3.5,4.5,8.2,4.5,14.1v2H114.6z M132.5,31.2V0h-9v8.3c-2.1-3.3-4.6-5.8-7.7-7.3
							s-6.8-2.4-11.2-2.4c-5.6,0-10,1.6-13.4,4.7c-3.3,3.1-5,7.4-5,12.6c0,6.1,2.1,10.8,6.2,13.9c4.1,3.1,10.3,4.7,18.4,4.7h12.6
							v0.9c0,4.1-1.4,7.3-4.1,9.6s-6.5,3.4-11.5,3.4c-3.1,0-6.2-0.4-9.1-1.1c-3-0.8-5.8-1.9-8.5-3.4v8.3c3.3,1.3,6.5,2.2,9.6,2.8
							c3.1,0.6,6.1,1,9,1c7.9,0,13.8-2.1,17.7-6.2C130.6,45.8,132.5,39.5,132.5,31.2z"/>
					</g>
					<g>
						<path id="DejaVuSans-105" d="M151,54.7h9V0h-9V54.7z M151,76h9V64.6h-9V76z"/>
					</g>
					<g>
						<path id="DejaVuSans-110" d="M224.3,33V0h-9v32.7c0,5.2-1,9-3,11.6c-2,2.6-5,3.9-9.1,3.9c-4.9,0-8.7-1.5-11.5-4.6
							c-2.8-3.1-4.2-7.3-4.2-12.6V0h-9v54.7h9v-8.5c2.2,3.3,4.7,5.8,7.6,7.4c2.9,1.6,6.3,2.4,10.1,2.4c6.3,0,11-1.9,14.3-5.8
							C222.7,46.3,224.3,40.6,224.3,33z"/>
					</g>
					<g>
						<path id="DejaVuSans-32" d="M232.8,0"/>
					</g>
					<g>
						<path id="DejaVuSans-100" d="M310,46.4V76h9V0h-9v8.2c-1.9-3.3-4.3-5.7-7.2-7.3c-2.9-1.6-6.3-2.4-10.4-2.4
							c-6.6,0-12,2.6-16.1,7.9c-4.1,5.3-6.2,12.2-6.2,20.8s2.1,15.5,6.2,20.8c4.2,5.3,9.5,7.9,16.1,7.9c4,0,7.5-0.8,10.4-2.4
							C305.7,52.1,308.1,49.6,310,46.4z M279.3,27.3c0-6.6,1.4-11.8,4.1-15.5s6.5-5.6,11.2-5.6s8.5,1.9,11.2,5.6
							c2.7,3.8,4.1,8.9,4.1,15.5s-1.4,11.8-4.1,15.5c-2.7,3.8-6.5,5.6-11.2,5.6s-8.5-1.9-11.2-5.6S279.3,33.9,279.3,27.3z"/>
					</g>
					<g>
						<path d="M362.3,27.5c-7.3,0-12.3-0.8-15.1-2.5c-2.8-1.7-4.2-4.5-4.2-8.5c0-3.2,1.1-5.7,3.2-7.6c2.1-1.9,5-2.8,8.6-2.8
							c5,0,9,1.8,12,5.3c3,3.5,4.5,8.2,4.5,14.1v2H362.3z M380.2,31.2V0h-9v8.3c-2.1-3.3-4.6-5.8-7.7-7.3s-6.8-2.4-11.2-2.4
							c-5.6,0-10,1.6-13.4,4.7c-3.3,3.1-5,7.4-5,12.6c0,6.1,2.1,10.8,6.2,13.9c4.1,3.1,10.3,4.7,18.4,4.7h12.6v0.9
							c0,4.1-1.4,7.3-4.1,9.6s-6.5,3.4-11.5,3.4c-3.1,0-6.2-0.4-9.1-1.1c-3-0.8-5.8-1.9-8.5-3.4v8.3c3.3,1.3,6.5,2.2,9.6,2.8
							c3.1,0.6,6.1,1,9,1c7.9,0,13.8-2.1,17.7-6.2C378.3,45.8,380.2,39.5,380.2,31.2z"/>
					</g>
					<g>
						<path d="M407.6,70.2V54.7h18.5v-7h-18.5V18c0-4.5,0.6-7.3,1.8-8.6s3.7-1.9,7.5-1.9h9.2V0h-9.2c-6.9,0-11.7,1.3-14.4,3.9
							c-2.6,2.6-4,7.3-4,14.1v29.7H392v7h6.6v15.5H407.6z"/>
					</g>
					<g>
						<path d="M462.8,27.5c-7.3,0-12.3-0.8-15.1-2.5c-2.8-1.7-4.2-4.5-4.2-8.5c0-3.2,1.1-5.7,3.2-7.6c2.1-1.9,5-2.8,8.6-2.8
							c5,0,9,1.8,12,5.3c3,3.5,4.5,8.2,4.5,14.1v2H462.8z M480.7,31.2V0h-9v8.3c-2.1-3.3-4.6-5.8-7.7-7.3s-6.8-2.4-11.2-2.4
							c-5.6,0-10,1.6-13.4,4.7c-3.3,3.1-5,7.4-5,12.6c0,6.1,2.1,10.8,6.2,13.9c4.1,3.1,10.3,4.7,18.4,4.7h12.6v0.9
							c0,4.1-1.4,7.3-4.1,9.6s-6.5,3.4-11.5,3.4c-3.1,0-6.2-0.4-9.1-1.1c-3-0.8-5.8-1.9-8.5-3.4v8.3c3.3,1.3,6.5,2.2,9.6,2.8
							c3.1,0.6,6.1,1,9,1c7.9,0,13.8-2.1,17.7-6.2C478.8,45.8,480.7,39.5,480.7,31.2z"/>
					</g>
				</g>
			</g>
			<g id="line2d_32">
				<path class="st22" d="M1156.8,112.7h20"/>
			</g>
			<g id="line2d_33">
			</g>
			<g id="text_19">
				<g transform="translate(1184.770937 116.207763)scale(0.1 -0.1)">
					<g>
						<path id="DejaVuSans-112" d="M18.1,8.2v-29h-9v75.5h9v-8.3c1.9,3.3,4.3,5.7,7.2,7.2c2.9,1.6,6.3,2.4,10.3,2.4
							c6.6,0,12-2.6,16.2-7.9c4.2-5.3,6.2-12.2,6.2-20.8s-2.1-15.5-6.2-20.8c-4.1-5.3-9.5-7.9-16.2-7.9c-4,0-7.4,0.8-10.3,2.4
							C22.4,2.5,20,5,18.1,8.2z M48.7,27.3c0,6.6-1.4,11.8-4.1,15.5s-6.5,5.6-11.2,5.6c-4.8,0-8.5-1.9-11.2-5.6s-4.1-8.9-4.1-15.5
							s1.4-11.8,4.1-15.5s6.5-5.6,11.2-5.6c4.8,0,8.5,1.9,11.2,5.6S48.7,20.7,48.7,27.3z"/>
					</g>
					<g>
						<path d="M104.6,46.3c-1,0.6-2.1,1-3.3,1.3c-1.2,0.3-2.5,0.4-3.9,0.4c-5.1,0-9-1.7-11.7-5s-4.1-8-4.1-14.2V0h-9v54.7h9v-8.5
							c1.9,3.3,4.4,5.8,7.4,7.4c3,1.6,6.7,2.4,11,2.4c0.6,0,1.3,0,2-0.1c0.8-0.1,1.6-0.2,2.5-0.4L104.6,46.3z"/>
					</g>
					<g>
						<path id="DejaVuSans-101" d="M160.8,29.6v-4.4h-41.3c0.4-6.2,2.3-10.9,5.6-14.1c3.3-3.2,8-4.9,13.9-4.9c3.4,0,6.8,0.4,10,1.3
							s6.5,2.1,9.7,3.8V2.8c-3.2-1.4-6.5-2.4-9.9-3.1s-6.8-1.1-10.3-1.1c-8.7,0-15.6,2.5-20.7,7.6c-5.1,5.1-7.6,12-7.6,20.6
							c0,8.9,2.4,16,7.3,21.3c4.8,5.3,11.4,7.9,19.6,7.9c7.4,0,13.2-2.4,17.5-7.1C158.6,44.2,160.8,37.7,160.8,29.6z M151.8,32.2
							c-0.1,4.9-1.4,8.8-4.1,11.8c-2.7,2.9-6.2,4.4-10.7,4.4c-5,0-9-1.4-12-4.3c-3-2.8-4.7-6.8-5.2-12L151.8,32.2z"/>
					</g>
					<g>
						<path d="M211.5,46.4V76h9V0h-9v8.2c-1.9-3.3-4.3-5.7-7.2-7.3c-2.9-1.6-6.3-2.4-10.4-2.4c-6.6,0-12,2.6-16.1,7.9
							c-4.1,5.3-6.2,12.2-6.2,20.8s2.1,15.5,6.2,20.8c4.2,5.3,9.5,7.9,16.1,7.9c4,0,7.5-0.8,10.4-2.4
							C207.2,52.1,209.6,49.6,211.5,46.4z M180.9,27.3c0-6.6,1.4-11.8,4.1-15.5s6.5-5.6,11.2-5.6s8.5,1.9,11.2,5.6
							c2.7,3.8,4.1,8.9,4.1,15.5s-1.4,11.8-4.1,15.5c-2.7,3.8-6.5,5.6-11.2,5.6s-8.5-1.9-11.2-5.6S180.9,33.9,180.9,27.3z"/>
					</g>
					<g>
						<path d="M239,54.7h9V0h-9V54.7z M239,76h9V64.6h-9V76z"/>
					</g>
					<g>
						<path id="DejaVuSans-99" d="M306.1,52.6v-8.4c-2.5,1.4-5.1,2.5-7.6,3.2c-2.6,0.7-5.1,1-7.7,1c-5.8,0-10.4-1.8-13.6-5.5
							c-3.2-3.7-4.8-8.9-4.8-15.5s1.6-11.9,4.8-15.6c3.2-3.7,7.8-5.5,13.6-5.5c2.6,0,5.2,0.3,7.7,1c2.6,0.7,5.1,1.8,7.6,3.2V2.1
							c-2.5-1.2-5.1-2-7.8-2.6c-2.7-0.6-5.5-0.9-8.6-0.9c-8.2,0-14.8,2.6-19.6,7.8c-4.8,5.2-7.3,12.2-7.3,21c0,8.9,2.4,15.9,7.3,21
							c4.9,5.1,11.6,7.7,20.2,7.7c2.8,0,5.5-0.3,8.1-0.9C301.1,54.6,303.6,53.7,306.1,52.6z"/>
					</g>
					<g>
						<path d="M330.6,70.2V54.7h18.5v-7h-18.5V18c0-4.5,0.6-7.3,1.8-8.6s3.7-1.9,7.5-1.9h9.2V0h-9.2c-6.9,0-11.7,1.3-14.4,3.9
							c-2.6,2.6-4,7.3-4,14.1v29.7H315v7h6.6v15.5H330.6z"/>
					</g>
					<g>
						<path d="M361,54.7h9V0h-9V54.7z M361,76h9V64.6h-9V76z"/>
					</g>
					<g>
						<path id="DejaVuSans-111" d="M409.9,48.4c-4.8,0-8.6-1.9-11.4-5.6c-2.8-3.8-4.2-8.9-4.2-15.5s1.4-11.7,4.2-15.5
							c2.8-3.8,6.6-5.6,11.5-5.6c4.8,0,8.6,1.9,11.4,5.7c2.8,3.8,4.2,8.9,4.2,15.4c0,6.5-1.4,11.6-4.2,15.4
							C418.5,46.5,414.7,48.4,409.9,48.4z M409.9,56c7.8,0,13.9-2.5,18.4-7.6c4.5-5.1,6.7-12.1,6.7-21.1c0-8.9-2.2-16-6.7-21.1
							c-4.5-5.1-10.6-7.6-18.4-7.6c-7.8,0-14,2.5-18.4,7.6c-4.4,5.1-6.7,12.1-6.7,21.1c0,9,2.2,16,6.7,21.1
							C395.9,53.5,402.1,56,409.9,56z"/>
					</g>
					<g>
						<path d="M495.4,33V0h-9v32.7c0,5.2-1,9-3,11.6c-2,2.6-5,3.9-9.1,3.9c-4.9,0-8.7-1.5-11.5-4.6c-2.8-3.1-4.2-7.3-4.2-12.6V0h-9
							v54.7h9v-8.5c2.2,3.3,4.7,5.8,7.6,7.4c2.9,1.6,6.3,2.4,10.1,2.4c6.3,0,11-1.9,14.3-5.8C493.8,46.3,495.4,40.6,495.4,33z"/>
					</g>
				</g>
			</g>
			<g id="line2d_34">
				<path class="st23" d="M1156.8,127.4h20"/>
			</g>
			<g id="line2d_35">
			</g>
			<g id="text_20">
				<g transform="translate(1184.770937 130.885888)scale(0.1 -0.1)">
					<g>
						<path d="M41.1,46.3c-1,0.6-2.1,1-3.3,1.3c-1.2,0.3-2.5,0.4-3.9,0.4c-5.1,0-9-1.7-11.7-5s-4.1-8-4.1-14.2V0h-9v54.7h9v-8.5
							c1.9,3.3,4.4,5.8,7.4,7.4c3,1.6,6.7,2.4,11,2.4c0.6,0,1.3,0,2-0.1c0.8-0.1,1.6-0.2,2.5-0.4L41.1,46.3z"/>
					</g>
					<g>
						<path d="M97.3,29.6v-4.4H56c0.4-6.2,2.3-10.9,5.6-14.1c3.3-3.2,8-4.9,13.9-4.9c3.4,0,6.8,0.4,10,1.3c3.2,0.8,6.5,2.1,9.7,3.8
							V2.8c-3.2-1.4-6.5-2.4-9.9-3.1C81.9-1.1,78.5-1.4,75-1.4c-8.7,0-15.6,2.5-20.7,7.6c-5.1,5.1-7.6,12-7.6,20.6
							c0,8.9,2.4,16,7.3,21.3c4.8,5.3,11.4,7.9,19.6,7.9c7.4,0,13.2-2.4,17.5-7.1C95.1,44.2,97.3,37.7,97.3,29.6z M88.3,32.2
							c-0.1,4.9-1.4,8.8-4.1,11.8c-2.7,2.9-6.2,4.4-10.7,4.4c-5,0-9-1.4-12-4.3s-4.7-6.8-5.2-12L88.3,32.2z"/>
					</g>
					<g>
						<path d="M136.9,27.5c-7.3,0-12.3-0.8-15.1-2.5c-2.8-1.7-4.2-4.5-4.2-8.5c0-3.2,1.1-5.7,3.2-7.6c2.1-1.9,5-2.8,8.6-2.8
							c5,0,9,1.8,12,5.3s4.5,8.2,4.5,14.1v2H136.9z M154.8,31.2V0h-9v8.3c-2.1-3.3-4.6-5.8-7.7-7.3s-6.8-2.4-11.2-2.4
							c-5.6,0-10,1.6-13.4,4.7c-3.3,3.1-5,7.4-5,12.6c0,6.1,2.1,10.8,6.2,13.9c4.1,3.1,10.3,4.7,18.4,4.7h12.6v0.9
							c0,4.1-1.4,7.3-4.1,9.6s-6.5,3.4-11.5,3.4c-3.1,0-6.2-0.4-9.1-1.1c-3-0.8-5.8-1.9-8.5-3.4v8.3c3.3,1.3,6.5,2.2,9.6,2.8
							c3.1,0.6,6.1,1,9,1c7.9,0,13.8-2.1,17.7-6.2C152.9,45.8,154.8,39.5,154.8,31.2z"/>
					</g>
					<g>
						<path id="DejaVuSans-108" d="M173.3,76h9V0h-9V76z"/>
					</g>
					<g>
						<path d="M191.7,0"/>
					</g>
					<g>
						<path d="M268.9,46.4V76h9V0h-9v8.2C267,5,264.6,2.5,261.7,1c-2.9-1.6-6.3-2.4-10.4-2.4c-6.6,0-12,2.6-16.1,7.9
							c-4.1,5.3-6.2,12.2-6.2,20.8s2.1,15.5,6.2,20.8c4.2,5.3,9.5,7.9,16.1,7.9c4,0,7.5-0.8,10.4-2.4
							C264.6,52.1,267,49.6,268.9,46.4z M238.3,27.3c0-6.6,1.4-11.8,4.1-15.5s6.5-5.6,11.2-5.6s8.5,1.9,11.2,5.6
							c2.7,3.8,4.1,8.9,4.1,15.5s-1.4,11.8-4.1,15.5c-2.7,3.8-6.5,5.6-11.2,5.6s-8.5-1.9-11.2-5.6S238.3,33.9,238.3,27.3z"/>
					</g>
					<g>
						<path d="M321.2,27.5c-7.3,0-12.3-0.8-15.1-2.5s-4.2-4.5-4.2-8.5c0-3.2,1.1-5.7,3.2-7.6c2.1-1.9,5-2.8,8.6-2.8
							c5,0,9,1.8,12,5.3c3,3.5,4.5,8.2,4.5,14.1v2H321.2z M339.1,31.2V0h-9v8.3c-2.1-3.3-4.6-5.8-7.7-7.3s-6.8-2.4-11.2-2.4
							c-5.6,0-10,1.6-13.4,4.7c-3.3,3.1-5,7.4-5,12.6c0,6.1,2.1,10.8,6.2,13.9c4.1,3.1,10.3,4.7,18.4,4.7h12.6v0.9
							c0,4.1-1.4,7.3-4.1,9.6s-6.5,3.4-11.5,3.4c-3.1,0-6.2-0.4-9.1-1.1c-3-0.8-5.8-1.9-8.5-3.4v8.3c3.3,1.3,6.5,2.2,9.6,2.8
							c3.1,0.6,6.1,1,9,1c7.9,0,13.8-2.1,17.7-6.2C337.2,45.8,339.1,39.5,339.1,31.2z"/>
					</g>
					<g>
						<path d="M366.5,70.2V54.7H385v-7h-18.5V18c0-4.5,0.6-7.3,1.8-8.6s3.7-1.9,7.5-1.9h9.2V0h-9.2c-6.9,0-11.7,1.3-14.4,3.9
							c-2.6,2.6-4,7.3-4,14.1v29.7h-6.6v7h6.6v15.5H366.5z"/>
					</g>
					<g>
						<path d="M421.7,27.5c-7.3,0-12.3-0.8-15.1-2.5c-2.8-1.7-4.2-4.5-4.2-8.5c0-3.2,1.1-5.7,3.2-7.6c2.1-1.9,5-2.8,8.6-2.8
							c5,0,9,1.8,12,5.3c3,3.5,4.5,8.2,4.5,14.1v2H421.7z M439.6,31.2V0h-9v8.3C428.6,5,426,2.5,423,1s-6.8-2.4-11.2-2.4
							c-5.6,0-10,1.6-13.4,4.7c-3.3,3.1-5,7.4-5,12.6c0,6.1,2.1,10.8,6.2,13.9c4.1,3.1,10.3,4.7,18.4,4.7h12.6v0.9
							c0,4.1-1.4,7.3-4.1,9.6s-6.5,3.4-11.5,3.4c-3.1,0-6.2-0.4-9.1-1.1c-3-0.8-5.8-1.9-8.5-3.4v8.3c3.3,1.3,6.5,2.2,9.6,2.8
							c3.1,0.6,6.1,1,9,1c7.9,0,13.8-2.1,17.7-6.2C437.7,45.8,439.6,39.5,439.6,31.2z"/>
					</g>
				</g>
			</g>
		</g>
	</g>
</g>
<text transform="matrix(1 0 0 1 200.1108 651.9709)" class="st24 st25">2004.02</text>
<text transform="matrix(1 0 0 1 541.7278 652.7662)" class="st24 st25">2009.10</text>
<text transform="matrix(1 0 0 1 994.4087 651.9712)" class="st24 st25">2016.12</text>
</svg>
